<svg width="862" height="837" viewBox="0 0 862 837" fill="none" xmlns="http://www.w3.org/2000/svg">
<path d="M25 558.333V158.333" stroke="#EDB641" stroke-width="50" stroke-linecap="round"/>
<path d="M558 158V518" stroke="#EDB641" stroke-width="50" stroke-linecap="round"/>
<path d="M291.667 291.667C438.943 291.667 558.333 231.971 558.333 158.333C558.333 84.6953 438.943 25 291.667 25C144.391 25 25 84.6953 25 158.333C25 231.971 144.391 291.667 291.667 291.667Z" stroke="#EDB641" stroke-width="50"/>
<path d="M558.333 358.333C558.333 431.97 438.943 491.666 291.667 491.666C144.391 491.666 25 431.97 25 358.333" stroke="#EDB641" stroke-width="50"/>
<path d="M234 660C118.572 660 25 613.437 25 556" stroke="#EDB641" stroke-width="50"/>
<path d="M234 660H244" stroke="#EDB641" stroke-width="50" stroke-linecap="round"/>
<path d="M781.356 450.629L824.378 493.675L836.736 506.04L824.384 518.411L543.842 799.365L531.458 811.767L519.075 799.365L368.616 648.686L356.272 636.323L368.613 623.958L411.596 580.893L423.978 568.487L436.363 580.888L531.456 676.085L756.596 450.634L768.974 438.239L781.356 450.629Z" stroke="#EDB641" stroke-width="35"/>
</svg>
